<svg xmlns="http://www.w3.org/2000/svg" width="21.441" height="19.669" viewBox="0 0 21.441 19.669">
  <g id="Group_290" data-name="Group 290" transform="translate(542 -401)">
    <g id="Ellipse_8" data-name="Ellipse 8" transform="translate(-539.05 401)" fill="none" stroke="#2d2d2d" stroke-width="2">
      <circle cx="4.917" cy="4.917" r="4.917" stroke="none"/>
      <circle cx="4.917" cy="4.917" r="3.917" fill="none"/>
    </g>
    <g id="Rectangle_30" data-name="Rectangle 30" transform="translate(-542 411.818)" fill="none" stroke="#2d2d2d" stroke-width="2">
      <path d="M6.884,0H8.851a6.884,6.884,0,0,1,6.884,6.884v0a1.967,1.967,0,0,1-1.967,1.967H1.967A1.967,1.967,0,0,1,0,6.884v0A6.884,6.884,0,0,1,6.884,0Z" stroke="none"/>
      <path d="M6.872,1H8.863a5.872,5.872,0,0,1,5.872,5.872v0a.979.979,0,0,1-.979.979H1.979A.979.979,0,0,1,1,6.872v0A5.872,5.872,0,0,1,6.872,1Z" fill="none"/>
    </g>
    <g id="Group_289" data-name="Group 289" transform="translate(-528.162 406.058)">
      <path id="Path_87" data-name="Path 87" d="M-524.571,404.143v6.6" transform="translate(527.873 -404.143)" fill="none" stroke="#2d2d2d" stroke-linecap="round" stroke-width="2"/>
      <path id="Path_88" data-name="Path 88" d="M0,0V6.6" transform="translate(6.603 3.302) rotate(90)" fill="none" stroke="#2d2d2d" stroke-linecap="round" stroke-width="2"/>
    </g>
  </g>
</svg>
